# xmcd CD database file
#
# Track frame offsets:
#	150
#	31058
#	60696
#	90638
#	109831
#	145974
#	178588
#	205202
#
# Disc length: 3096 seconds
#
# Revision: 0
# Processed by: cddbd v1.5.2PL0 Copyright (c) Steve Scherf et al.
# Submitted via: CDex 1.70beta2
#
DISCID=6a0c1608
DTITLE=Kei Akagi Trio - Liquid Blue
DYEAR=2007
DGENRE=Jazz
TTITLE0=A Smile In The Rain
TTITLE1=Liquid Blue
TTITLE2=Ripple Effect
TTITLE3=Blue In Green
TTITLE4=If Ants Read Poetry...
TTITLE5=Winter Light
TTITLE6=The Children Play
TTITLE7=Another Way Home
EXTD=YEAR: 2007
EXTT0=
EXTT1=
EXTT2=
EXTT3=
EXTT4=
EXTT5=
EXTT6=
EXTT7=
PLAYORDER=
